<?xml version="1.0" encoding="UTF-8"?>
<svg width="64px" height="64px" viewBox="0 0 64 64" version="1.1" xmlns="http://www.w3.org/2000/svg" xmlns:xlink="http://www.w3.org/1999/xlink">
    <title>Assets / Icons / Content / Ad-Free</title>
    <g id="Assets-/-Icons-/-Content-/-Ad-Free" stroke="none" stroke-width="1" fill="none" fill-rule="evenodd">
        <path d="M8.595,11.285 L37.067,34.921 L45.328,41.804 L45.326,41.778 L47.471,43.558 L47.474,43.593 L50.2888498,45.9398554 L50.292,45.901 L52.12,47.418 L52.115,47.46 L56.6401844,51.2317787 L55.3598156,52.7682213 L51.764,49.772 L51.7554977,49.8278497 L51.6467675,50.4178858 L51.5340605,50.9722631 L51.5051993,51.1052842 L51.4760474,51.2360756 L51.3563653,51.73694 C50.8062225,53.9105341 50.094385,55 49,55 C48.4425403,55 47.9851415,54.7188871 47.5979766,54.1570558 L47.574746,54.1374358 L47.2460702,53.8779727 L46.1731882,53.0449845 L45.3891861,52.4482508 C43.0736032,50.699517 40.6043048,48.9507697 38.0867726,47.32011 C35.748714,45.8056992 33.4848482,44.4699007 31.3402955,43.3617469 C27.7535999,41.5083953 24.6292693,40.3588128 22.1191532,40.0463849 L22,40.033 L22,42.069 C22,42.7869484 22.1933095,43.4901148 22.5572349,44.1057524 L22.7016602,44.3323716 L24.6375294,47.1547797 L24.6802929,47.2687799 C25.6499626,49.8537536 24.3392656,52.7204512 21.7811049,53.6958572 L21.576572,53.7688941 L21.3467851,53.8444973 C19.8721589,54.3370023 18.2771847,53.6208862 17.6557957,52.2175566 L17.614,52.117 L14.9426052,46.7492731 C14.3743351,45.6065449 14.0558433,44.3580859 14.0067077,43.0863517 L14,42.739 L14,41 L16,41 L16,42.739 C16,43.7128664 16.2033187,44.675035 16.5955143,45.5646219 L16.7332218,45.8583792 L19.4202218,51.2563792 L19.4615201,51.3513862 C19.6363468,51.8183634 20.1257107,52.079067 20.6067209,51.9763361 L20.717428,51.9461059 L20.9477722,51.8703167 C22.5030764,51.351882 23.3434771,49.6876764 22.866192,48.1423676 L22.842,48.073 L21.0521788,45.4633936 C20.4196018,44.5405624 20.0583282,43.4614421 20.0064907,42.3480039 L20,42.069 L20,39.819 L10.7942425,38.8403919 L10.6245395,38.8073124 C8.55271305,38.2136382 7.10277386,36.3649617 7.00524158,34.2298175 L7,34 L7,30 C7,27.8447534 8.37940886,25.9419158 10.4064313,25.2607973 L10.626057,25.1925395 L10.7845967,25.160798 L20.8128678,23.9858912 L20.819,23.984 L7.3598156,12.7682213 L8.595,11.285 Z M47.7713072,46.4471491 C47.7870705,46.5761702 47.8030485,46.703989 47.8192387,46.8305711 L47.8893939,47.3615597 L48.0064524,48.1754922 C48.2457368,49.7539854 48.5151672,51.0321175 48.7992877,51.9355445 C48.8436167,52.0764988 48.8878541,52.2067264 48.9322517,52.3278766 L48.999,52.503 L49.0562528,52.3586116 L49.145379,52.1061061 L49.2127414,51.8970415 C49.320068,51.5512473 49.4252225,51.1521478 49.5273839,50.703769 L49.6034309,50.3583079 L49.7274727,49.7424983 L49.7881329,49.416283 L49.8478266,49.0781518 L49.9641363,48.3670157 L49.976,48.283 L47.7713072,46.4471491 Z M22.8839403,25.7071232 C22.5844635,25.7654037 22.2895628,25.8160049 21.9993435,25.8587973 L22,38.02 L22.3581422,38.0605286 C25.0221325,38.3892705 28.1858712,39.5247882 31.7674451,41.3340584 L32.2584238,41.5849407 C34.4657586,42.7255358 36.7845929,44.0937686 39.1740591,45.6414772 C41.6702144,47.2582905 44.1153999,48.9861233 46.4148288,50.7167912 L46.3997068,50.6494688 L46.372051,50.5103364 L46.2637798,49.9319332 L46.1588686,49.3185374 L46.0567799,48.6701562 L45.9569761,47.9867966 L45.8359728,47.0887602 C45.735443,46.3031116 45.6429891,45.4721554 45.5591613,44.6035861 L22.8839403,25.7071232 Z M52.8685983,38.226 L52.8560426,38.5655183 L52.7866738,39.962867 C52.6881199,41.7580392 52.5570207,43.4695819 52.3967461,45.0491806 L50.5333735,43.5032068 C50.6664881,41.9719463 50.7733642,40.3341484 50.8510694,38.6308113 L52.8685983,38.226 Z M49,9 C50.0487856,9 50.7462386,10.0005685 51.2867393,11.9970076 L51.3563653,12.26306 L51.4760474,12.7639244 L51.5051993,12.8947158 L51.5340605,13.0277369 L51.6467675,13.5821142 L51.7554977,14.1721503 L51.8607896,14.7978324 L51.9631819,15.4591474 L52.0632131,16.1560823 L52.1845642,17.0732949 C52.4178342,18.931153 52.606287,21.0338226 52.7430208,23.2823554 L52.7866738,24.037133 L52.8560426,25.4344817 L52.8685983,25.774 L50.8511152,25.3701917 C50.7166348,22.4218344 50.4947558,19.6698103 50.2006852,17.3267291 L50.1302384,16.7835969 L50.1032934,16.5850406 L50.0760454,16.3891628 L49.9641363,15.6329843 L49.9354575,15.4509093 L49.9065092,15.2716768 L49.7881329,14.583717 L49.7579208,14.4191062 L49.7274727,14.2575017 L49.6034309,13.6416921 C49.477664,13.0507335 49.3468997,12.5352013 49.2127414,12.1029585 C49.1677671,11.9580563 49.1228547,11.8241212 49.0784253,11.7016603 L49.0121961,11.526638 L48.999999,11.496 L48.9215747,11.7016603 C48.8771453,11.8241212 48.8322329,11.9580563 48.7872586,12.1029585 C48.679932,12.4487527 48.5747775,12.8478522 48.4726161,13.296231 L48.3965691,13.6416921 L48.2725273,14.2575017 L48.2118671,14.583717 L48.1521734,14.9218482 L48.0358637,15.6329843 L47.9239546,16.3891628 L47.8697616,16.7835969 C47.5104779,19.4641196 47.2495285,22.7340995 47.1117008,26.2466014 L51.9707066,27.4619003 C53.6850479,27.8908066 54.9067515,29.3904563 54.9948965,31.1400601 L55,31.343 L55,32.657 C55,34.4246168 53.8417904,35.9738484 52.1661398,36.4839436 L51.9705356,36.5381425 L47.112,37.752 L47.1257084,38.0989217 L47.1895399,39.4638507 L47.264,40.788 L45.166,39.045 L45.1588086,38.8902368 L45.1278941,38.1927856 L45.0758139,36.7786821 L45.0648556,36.4215855 L45.0547326,36.0632079 L45.022698,34.6183601 L45.0077001,33.5248819 L45.0005983,32.4251763 L45.0018342,31.256236 C45.007326,30.1420405 45.0251023,29.03506 45.054515,27.9445873 L45.0877824,26.8599613 L45.1439574,25.4344817 L45.2133262,24.037133 C45.3512387,21.525039 45.5528818,19.1767091 45.809021,17.1245374 L45.8874884,16.5179031 L45.9367869,16.1560823 L46.0368181,15.4591474 L46.1392104,14.7978324 L46.2445023,14.1721503 L46.3532325,13.5821142 L46.417,13.266 L46.5739498,13.1500882 C44.1992939,14.9268502 41.6510274,16.7035308 39.0271414,18.3632189 C36.1449668,20.1862823 33.3448454,21.7564387 30.6877342,22.998067 C29.5812475,23.5151116 28.5093529,23.9707085 27.4749917,24.361242 L25.6885877,22.8767945 C26.9969587,22.4331614 28.384163,21.8669086 29.8410433,21.1861303 C32.4142583,19.9837055 35.1425803,18.4538103 37.9580059,16.6729676 C40.5341309,15.0434899 43.0404374,13.2960643 45.3757762,11.5487201 L46.1657224,10.9525436 L46.8994874,10.3889474 L47.6035778,9.8366711 C47.9901365,9.27912109 48.4460639,9 49,9 Z M20,26.094 L11.108,27.136 L11.0028184,27.1706414 C9.86580566,27.5711158 9.07791614,28.6155334 9.00545731,29.8184366 L9,30 L9,34 C9,35.2779038 9.80851262,36.4082647 11.0023385,36.8294093 L11.104,36.862 L20,37.808 L20,26.094 Z M47.0461545,28.2921349 C47.0216785,29.2726612 47.006727,30.2662946 47.0018041,31.265983 L46.999999,31.9985904 L47.0043837,33.1435792 C47.0109914,34.005104 47.0250258,34.8612865 47.0461542,35.707593 L51.4852934,34.5979003 C52.3230227,34.3883111 52.9255968,33.6671635 52.9935892,32.8176871 L53,32.657 L53,31.343 C53,30.4789795 52.4467041,29.719336 51.6396814,29.4473346 L51.4854644,29.4021425 L47.0461545,28.2921349 Z" id="Combined-Shape" fill="#020303" fill-rule="nonzero"></path>
    </g>
</svg>