<?xml version="1.0" encoding="UTF-8"?>
<svg width="64px" height="64px" viewBox="0 0 64 64" version="1.1" xmlns="http://www.w3.org/2000/svg" xmlns:xlink="http://www.w3.org/1999/xlink">
    <title>Assets / Icons / Content / Music for Business / Exclusive Business Channels</title>
    <g id="Assets-/-Icons-/-Content-/-Music-for-Business-/-Exclusive-Business-Channels" stroke="none" stroke-width="1" fill="none" fill-rule="evenodd">
        <path d="M44.7817,10 C46.5273856,10 47.9997,11.2623113 47.9997,12.901 L47.9997,12.901 L47.9997,49.099 C47.9997,50.7376887 46.5273856,52 44.7817,52 L44.7817,52 L9.2187,52 C7.47222525,52 5.9997,50.737901 5.9997,49.099 L5.9997,49.099 L5.9997,12.901 C5.9997,11.262099 7.47222525,10 9.2187,10 L9.2187,10 Z M44.7817,12 L9.2187,12 C8.51422633,12 7.9997,12.4409997 7.9997,12.901 L7.9997,12.901 L7.9997,49.099 C7.9997,49.5590003 8.51422633,50 9.2187,50 L9.2187,50 L44.7817,50 C45.4852723,50 45.9997,49.5589476 45.9997,49.099 L45.9997,49.099 L45.9997,12.901 C45.9997,12.4410524 45.4852723,12 44.7817,12 L44.7817,12 Z M39,16.6980884 L39,36.8887 L38.9987,36.888 L39,36.9375 C39,39.6275775 36.6328864,41.7661901 33.7247399,41.8714395 L33.5,41.8755 C30.4900604,41.8755 28,39.6965539 28,36.9375 C28,34.1784461 30.4900604,31.9995 33.5,31.9995 C34.8230808,31.9995 36.0457094,32.4205209 37.0005488,33.1267657 L37,19.3 L24,22.767 L24,40.8887 L23.9987,40.888 L24,40.9375 C24,43.6275775 21.6328864,45.7661901 18.7247399,45.8714395 L18.5,45.8755 C15.4900604,45.8755 13,43.6965539 13,40.9375 C13,38.1784461 15.4900604,35.9995 18.5,35.9995 C19.8230808,35.9995 21.0457094,36.4205209 22.0005488,37.1267657 L22,21.2314217 L39,16.6980884 Z M18.5,37.9995 C16.5396643,37.9995 15,39.3467948 15,40.9375 C15,42.5282052 16.5396643,43.8755 18.5,43.8755 C20.4603357,43.8755 22,42.5282052 22,40.9375 C22,39.3467948 20.4603357,37.9995 18.5,37.9995 Z M33.5,33.9995 C31.5396643,33.9995 30,35.3467948 30,36.9375 C30,38.5282052 31.5396643,39.8755 33.5,39.8755 C35.4603357,39.8755 37,38.5282052 37,36.9375 C37,35.3467948 35.4603357,33.9995 33.5,33.9995 Z M53,14 L53,52 L51,52 L51,14 L53,14 Z M58,18 L58,52 L56,52 L56,18 L58,18 Z" id="Combined-Shape" fill="#080909" fill-rule="nonzero"></path>
    </g>
</svg>