<?xml version="1.0" encoding="UTF-8"?>
<svg width="30px" height="30px" viewBox="0 0 30 30" version="1.1" xmlns="http://www.w3.org/2000/svg" xmlns:xlink="http://www.w3.org/1999/xlink">
    <title>Icon - Howard HS</title>
    <g id="Test---March-2" stroke="none" stroke-width="1" fill="none" fill-rule="evenodd">
        <g id="Group" transform="translate(-5.000000, -5.000000)" fill="#221E1F" fill-rule="nonzero">
            <g id="Assets-/-Icons-/-Content-/-Ad-Free-Copy-10">
                <path d="M9.7400625,6.34920635 L9.7400625,13.792381 L7.8531875,13.792381 L7.8531875,16.1593651 L9.7400625,16.1593651 L9.7400625,21.3022222 L12.5469375,21.3022222 L12.5469375,16.1593651 L22.0969375,16.1593651 L22.0969375,18.9028571 L16.8081875,18.9028571 C16.0494375,18.9028571 15.5338125,19.4780952 15.5488125,20.1028571 L15.5488125,20.1028571 L15.5488125,25.5752381 C15.5488125,26.1993651 16.0338125,26.775873 16.8081875,26.775873 L16.8081875,26.775873 L28.6969375,26.775873 L28.6969375,29.535873 L15.5488125,29.535873 L15.5488125,31.9187302 L30.2456875,31.9187302 C31.0188125,31.9187302 31.5194375,31.3447619 31.5194375,30.7193651 L31.5194375,30.7193651 L31.5194375,25.6088889 C31.5344375,24.9688889 31.0031875,24.4095238 30.2456875,24.4095238 L30.2456875,24.4095238 L18.3563125,24.4095238 L18.3563125,21.3034921 L33.7500625,21.3034921 L33.7500625,18.9028571 L24.9031875,18.9028571 L24.9031875,8.28698413 L22.0969375,8.28698413 L22.0969375,13.792381 L12.5469375,13.792381 L12.5469375,6.34920635 L9.7400625,6.34920635 Z M30.908125,5.71428571 L8.98800026,5.71464029 C8.82522328,5.71824484 8.61071358,5.73928109 8.36206403,5.78883614 C7.97845808,5.86528757 7.60069339,5.99411247 7.24736669,6.18971488 C6.23793544,6.74853818 5.625,7.73935949 5.625,9.16634921 L5.625,31.4828423 C5.62887966,31.6621331 5.64950437,31.8803546 5.69809623,32.1333394 C5.77307181,32.5236863 5.89941205,32.9080961 6.09126274,33.2676771 C6.63981537,34.2958158 7.61324322,34.9206349 9.015625,34.9206349 L30.908125,34.9206349 C31.3422812,34.9206349 31.9496275,34.8174783 32.5705281,34.501102 C33.6389072,33.9567155 34.2975,32.949969 34.2975,31.4685714 L34.2975,9.16634921 C34.2975,8.72468228 34.1964097,8.10656226 33.8863227,7.47455006 C33.3522323,6.38597925 32.3635642,5.71428571 30.908125,5.71428571 Z M9.00162655,6.98412698 L30.9081307,6.98412698 C31.8715139,6.98412698 32.4378068,7.36886202 32.7675836,8.0410055 C32.8885982,8.28765475 32.9683028,8.55840825 33.0127579,8.83023046 L33.024477,8.90721704 L33.0400062,9.03799122 L33.0475,9.16634921 L33.0475,31.4685714 C33.0475,32.4521738 32.6694521,33.0300702 32.0100969,33.3660409 C31.7684703,33.4891603 31.5032519,33.5702446 31.2369928,33.6154682 L31.161614,33.6273854 L31.0336124,33.6431754 L30.908125,33.6507937 L9.015625,33.6507937 C8.08511086,33.6507937 7.52599405,33.2919105 7.19022038,32.6625781 C6.96906005,32.2480628 6.88200532,31.7948279 6.875,31.4690744 L6.875,9.16634342 C6.875,8.216986 7.22777764,7.64671451 7.84550678,7.30473834 C8.20670206,7.10477986 8.5978491,7.01260625 8.90445195,6.98962847 L9.00162655,6.98412698 Z" id="Stroke-4"></path>
            </g>
        </g>
    </g>
</svg>