<?xml version="1.0" encoding="UTF-8"?>
<svg width="34px" height="26px" viewBox="0 0 34 26" version="1.1" xmlns="http://www.w3.org/2000/svg" xmlns:xlink="http://www.w3.org/1999/xlink">
    <title>Icon - Sports Baseball Football</title>
    <g id="Test---March-2" stroke="none" stroke-width="1" fill="none" fill-rule="evenodd">
        <g id="Group" transform="translate(-3.000000, -8.000000)" fill="#020303" fill-rule="nonzero">
            <g id="Assets-/-Icons-/-Content-/-Ad-Free-Copy-9">
                <path d="M17.1398136,8.88903099 L17.5389553,8.89069731 C30.6465832,9.02318213 37.445867,16.820701 36.0762715,30.190319 C35.8957311,31.9536603 34.4443053,33.2901931 32.6999084,33.297962 C25.1118349,33.3322917 19.8707252,31.1315931 16.850624,26.5634567 C16.6071235,29.4897688 14.4653596,32.0046945 11.485032,32.5548535 C7.91849902,33.2130967 4.50258482,30.8108458 3.85464571,27.1885093 C3.20603523,23.5648778 5.57117876,20.094525 9.13770669,19.4362828 C11.1133832,19.0711903 13.0431907,19.6461905 14.4817458,20.8478585 C13.895886,18.3645413 13.6550576,15.4993957 13.7498985,12.2448999 C13.8042909,10.3778789 15.3026703,8.89220055 17.1398136,8.88903099 Z M17.1419246,10.158822 L17.0226241,10.162392 C16.7394132,10.1786627 16.4707507,10.2507603 16.2271994,10.3681987 L20.5435875,15.2262709 L19.6156625,16.0770942 L15.3023935,11.2232343 C15.1198344,11.5339498 15.0106351,11.8951541 14.9993513,12.2824705 C14.602088,25.9146873 20.1449472,32.0849089 32.694385,32.0281331 C33.0186799,32.0266888 33.3268255,31.9529726 33.6032963,31.821283 L31.131557,29.0388235 L32.059568,28.1880971 L34.5328018,30.9712986 C34.6933547,30.701454 34.7988459,30.3923244 34.8329821,30.0589156 C36.1395661,17.3043982 29.7681916,10.1373308 17.1419246,10.158822 Z M11.0204747,28.5536231 C9.99215207,28.7436399 9.06709317,29.1903601 8.25119548,29.8183128 C7.95149237,30.0489782 7.68202161,30.2923579 7.44400552,30.5381476 C8.53531738,31.250257 9.88454986,31.5596125 11.261572,31.3054678 C12.6704537,31.0453927 13.8478633,30.2428865 14.6231164,29.1484153 C14.5535105,29.1066056 14.4802921,29.066566 14.4039711,29.0273415 C13.4354837,28.5295961 12.3012638,28.3172838 11.0204747,28.5536231 Z M14.2113661,22.3299486 L14.1507814,22.402918 C13.9514353,22.63551 13.7121314,22.8788892 13.4301881,23.1212543 C12.5859461,23.8469845 11.549538,24.3689191 10.3123867,24.5975239 C8.7519813,24.8854599 7.24684629,24.6465177 5.87686394,24.0751225 C5.7144176,24.007369 5.56387316,23.9393588 5.42589671,23.8727444 C5.02908505,24.8138238 4.89077418,25.8791479 5.08449263,26.9614065 C5.27779913,28.0420963 5.77544311,28.9886325 6.47137915,29.7264391 C6.7453227,29.4362642 7.0875596,29.1207743 7.49634496,28.8061542 C8.45985702,28.0645906 9.56168918,27.5325048 10.7969258,27.3042538 C12.3639167,27.0151027 13.7696478,27.2782387 14.968256,27.8942525 C15.0608215,27.9418257 15.1486378,27.9895679 15.2316444,28.0370226 C15.567502,27.1999604 15.7015578,26.268437 15.5819323,25.3164692 L15.5383824,25.0303396 L15.5075491,24.8714732 C15.3017676,23.8878117 14.8420337,23.0211646 14.2113661,22.3299486 Z M29.5333052,22.1228885 L30.3708198,23.0655559 L26.7983198,26.3411115 L25.9608052,25.3984441 L29.5333052,22.1228885 Z M27.6906802,20.0488568 L28.5281948,20.9915242 L24.9556948,24.2670797 L24.1181802,23.3244123 L27.6906802,20.0488568 Z M9.36128205,20.6856472 C7.9846421,20.9397213 6.82913727,21.7112612 6.05375744,22.7670331 C6.14811266,22.8128374 6.24788127,22.8571671 6.35161507,22.9004326 C7.51663405,23.3863413 8.7880617,23.5881821 10.0888378,23.3481546 C11.1018281,23.160971 11.9397855,22.7389761 12.6227391,22.1518931 C12.8203603,21.9820132 12.996972,21.8050413 13.1531698,21.62566 L13.2555901,21.5032145 C12.1506981,20.7556122 10.7703983,20.4252515 9.36128205,20.6856472 Z M25.8480552,17.974825 L26.6855698,18.9174924 L23.1130698,22.193048 L22.2755552,21.2503806 L25.8480552,17.974825 Z M24.005725,15.9013872 L24.84315,16.8441366 L21.27065,20.1190573 L20.433225,19.1763078 L24.005725,15.9013872 Z" id="Combined-Shape"></path>
            </g>
        </g>
    </g>
</svg>