<?xml version="1.0" encoding="utf-8"?>
<!-- Generator: Adobe Illustrator 24.1.0, SVG Export Plug-In . SVG Version: 6.00 Build 0)  -->
<svg version="1.1" id="Layer_1" xmlns="http://www.w3.org/2000/svg" xmlns:xlink="http://www.w3.org/1999/xlink" x="0px" y="0px"
	 viewBox="0 0 1361.881 462.443" enable-background="new 0 0 1361.881 462.443" xml:space="preserve">
<g>
	<path id="XMLID_83_" d="M395.031,364.158c0,7.832-5.788,13.28-14.074,13.28h-19.07v-26.56h19.07
		C389.243,350.877,395.031,356.211,395.031,364.158z M465.766,350.877h-19.07v26.673h19.07c8.286,0,14.074-5.446,14.074-13.393
		S474.053,350.877,465.766,350.877z M975.649,320.286v142.157H330.001c-13.566,0-24.562-10.996-24.562-24.561V295.724h645.648
		C964.652,295.724,975.649,306.721,975.649,320.286z M406.61,364.158c0-12.6-8.628-23.27-24.179-23.27h-24.404
		c-4.087,0-7.377,3.292-7.377,7.379v63.45c0,3.065,2.496,5.563,5.561,5.563c3.18,0,5.676-2.498,5.676-5.563v-24.289h20.545
		C397.754,387.427,406.61,376.756,406.61,364.158z M472.576,386.291c9.76-1.249,18.843-8.626,18.843-22.133
		c0-14.074-9.877-23.27-24.179-23.27h-24.404c-4.087,0-7.377,3.292-7.377,7.379v63.45c0,3.065,2.496,5.563,5.561,5.563
		c3.18,0,5.676-2.498,5.676-5.563v-24.289h14.189l17.025,27.242c1.022,1.701,2.725,2.611,4.541,2.611
		c3.292,0,5.561-2.725,5.561-5.448c0-0.909-0.225-1.816-0.794-2.838L472.576,386.291z M533.776,373.011v-22.133h35.188
		c2.723,0,4.881-2.271,4.881-4.881c0-2.95-2.158-5.108-4.881-5.108h-39.048c-4.085,0-7.377,3.292-7.377,7.379v60.954
		c0,4.085,3.292,7.377,7.377,7.377h39.048c2.723,0,4.881-2.156,4.881-5.109c0-2.611-2.158-4.881-4.881-4.881h-35.188v-23.608h34.394
		c2.723,0,4.881-2.271,4.881-4.881c0-2.953-2.158-5.108-4.881-5.108H533.776z M680.903,348.492c0-4.994-4.654-8.284-9.762-8.059
		c-3.632,0-7.037,2.158-8.399,5.563l-20.092,48.808l-19.977-48.808c-1.589-3.972-5.676-5.788-9.875-5.563
		c-4.539,0-8.172,3.747-8.172,8.059v63.225c0,3.065,2.496,5.563,5.561,5.563c3.178,0,5.676-2.498,5.676-5.563v-54.938l23.949,58.685
		c0.455,1.022,1.591,1.816,2.725,1.816c1.476,0,2.498-0.794,2.95-1.816l24.064-58.685v54.938c0,3.065,2.498,5.563,5.676,5.563
		c3.178,0,5.676-2.498,5.676-5.563V348.492z M726.106,345.656c0-2.953-2.498-5.448-5.448-5.448c-3.292,0-5.788,2.496-5.788,5.448
		v66.06c0,3.065,2.496,5.563,5.561,5.563c3.178,0,5.676-2.498,5.676-5.563V345.656z M823.503,345.656
		c0-2.953-2.383-5.448-5.448-5.448c-3.405,0-5.788,2.496-5.788,5.448v40.976c0,13.053-7.152,21.339-20.432,21.339
		c-13.393,0-20.544-8.286-20.544-21.339v-40.976c0-2.953-2.498-5.448-5.448-5.448c-3.292,0-5.788,2.496-5.788,5.448v41.316
		c0,18.616,10.557,30.987,31.781,30.987c21.114,0,31.669-12.258,31.669-31.101V345.656z M930.453,348.492
		c0-4.994-4.654-8.284-9.762-8.059c-3.632,0-7.037,2.158-8.399,5.563l-20.092,48.808l-19.977-48.808
		c-1.589-3.972-5.676-5.788-9.875-5.563c-4.539,0-8.172,3.747-8.172,8.059v63.225c0,3.065,2.496,5.563,5.561,5.563
		c3.178,0,5.676-2.498,5.676-5.563v-54.938l23.949,58.685c0.455,1.022,1.591,1.816,2.725,1.816c1.476,0,2.498-0.794,2.95-1.816
		l24.064-58.685v54.938c0,3.065,2.498,5.563,5.676,5.563c3.178,0,5.676-2.498,5.676-5.563V348.492z"/>
</g>
<g id="XMLID_195_">
	<g id="XMLID_196_">
		<path id="XMLID_211_" d="M894.507,83.326c29.406,0,53.329,23.923,53.329,53.328s-23.923,53.328-53.329,53.328
			c-29.405,0-53.328-23.923-53.328-53.328S865.101,83.326,894.507,83.326 M894.507,47.773c-49.088,0-88.881,39.794-88.881,88.881
			s39.794,88.881,88.881,88.881c49.088,0,88.882-39.794,88.882-88.881S943.595,47.773,894.507,47.773L894.507,47.773z"/>
		<path id="XMLID_208_" d="M343.438,53.295v14.457c-15.305-12.484-34.841-19.979-56.132-19.979
			c-49.088,0-88.881,39.794-88.881,88.881c0,49.088,39.794,88.881,88.881,88.881c21.291,0,40.827-7.495,56.132-19.978v14.456h32.749
			V53.295H343.438z M289.281,191.959c-30.495,0-55.304-24.809-55.304-55.304s24.809-55.304,55.304-55.304
			s55.304,24.809,55.304,55.304S319.775,191.959,289.281,191.959z"/>
		<path id="XMLID_205_" d="M1248.339,53.295v14.457c-15.306-12.484-34.841-19.979-56.132-19.979
			c-49.088,0-88.881,39.794-88.881,88.881c0,49.088,39.793,88.881,88.881,88.881c21.291,0,40.827-7.495,56.132-19.978v14.456h32.749
			V53.295H1248.339z M1194.181,191.959c-30.495,0-55.304-24.809-55.304-55.304s24.809-55.304,55.304-55.304
			s55.304,24.809,55.304,55.304S1224.676,191.959,1194.181,191.959z"/>
		<path id="XMLID_204_" d="M1041.596,63.87c-19.056,12.198-35.553,33.769-35.553,72.027v84.117h35.553v-84.117h0.001
			c0-55.304,57-52.284,57-52.284v-35.49v-0.054C1098.596,48.069,1067.691,47.165,1041.596,63.87z"/>
		<path id="XMLID_203_" d="M544.906,65.549c-14.855-11.159-33.318-17.775-53.329-17.775c-20.01,0-38.473,6.616-53.329,17.775
			c-21.587,16.216-35.553,42.029-35.553,71.106v83.36h35.553v-12.253v-71.106c0-29.406,23.923-53.329,53.329-53.329
			c29.406,0,53.329,23.923,53.329,53.329v71.106v12.253h35.553v-83.36C580.459,107.577,566.493,81.764,544.906,65.549z"/>
		<path id="XMLID_200_" d="M765.549,0c-9.043,0-16.374,7.331-16.374,16.375v51.377c-15.306-12.484-34.841-19.979-56.132-19.979
			c-49.089,0-88.882,39.794-88.882,88.881c0,49.088,39.793,88.881,88.882,88.881c21.291,0,40.826-7.495,56.132-19.978v14.457h32.749
			V16.375V0H765.549z M695.017,191.959c-30.495,0-55.303-24.809-55.303-55.304c0-30.495,24.809-55.304,55.303-55.304
			s55.304,24.809,55.304,55.304C750.321,167.149,725.512,191.959,695.017,191.959z"/>
		<path id="XMLID_197_" d="M88.882,47.773c-21.292,0-40.827,7.494-56.133,19.978V53.295H0v203.64v16.374h16.374
			c9.044,0,16.375-7.331,16.375-16.374v-51.377c15.305,12.484,34.841,19.978,56.133,19.978c49.088,0,88.882-39.794,88.882-88.881
			C177.763,87.567,137.969,47.773,88.882,47.773z M86.906,191.959c-30.495,0-55.304-24.809-55.304-55.304
			c0-30.495,24.809-55.304,55.304-55.304s55.304,24.809,55.304,55.304C142.21,167.149,117.401,191.959,86.906,191.959z"/>
	</g>
</g>
<path d="M1316.38,25.253v28.291h-4.083V25.253h-9.043v-3.792h22.167v3.792H1316.38z M1316.38,25.253v28.291h-4.083V25.253h-9.043
	v-3.792h22.167v3.792H1316.38z M1357.798,53.544V27.002l-10.939,26.542h-1.166l-10.939-26.542v26.542h-4.083V21.461h6.271
	l9.333,23.334l9.333-23.334h6.271v32.083H1357.798z"/>
</svg>
