<?xml version="1.0" encoding="utf-8"?>
<!-- Generator: Adobe Illustrator 24.1.0, SVG Export Plug-In . SVG Version: 6.00 Build 0)  -->
<svg version="1.1" id="Layer_1" xmlns="http://www.w3.org/2000/svg" xmlns:xlink="http://www.w3.org/1999/xlink" x="0px" y="0px"
	 viewBox="0 0 2155.453 275" enable-background="new 0 0 2155.453 275" xml:space="preserve">
<g id="XMLID_60_">
	<path id="XMLID_167_" d="M1575.784,122.556c0,7.995-5.824,13.475-14.161,13.475h-19.188v-26.838h19.188
		C1569.96,109.194,1575.784,114.56,1575.784,122.556z M1476.289,109.194H1457.1v26.724h19.188c8.338,0,14.161-5.482,14.161-13.362
		C1490.45,114.56,1484.626,109.194,1476.289,109.194z M2074.66,78.338v143.036h-649.641c-13.65,0-24.714-11.064-24.714-24.713
		V53.625h649.641C2063.595,53.625,2074.66,64.689,2074.66,78.338z M1502.1,122.556c0-12.678-8.682-23.414-24.328-23.414h-24.555
		c-4.112,0-7.423,3.313-7.423,7.425v63.842c0,3.084,2.511,5.597,5.595,5.597c3.199,0,5.711-2.513,5.711-5.597v-24.44h20.672
		C1493.19,145.97,1502.1,135.232,1502.1,122.556z M1568.475,144.826c9.821-1.257,18.96-8.679,18.96-22.27
		c0-14.162-9.938-23.414-24.328-23.414h-24.555c-4.112,0-7.423,3.313-7.423,7.425v63.842c0,3.084,2.511,5.597,5.595,5.597
		c3.199,0,5.711-2.513,5.711-5.597v-24.44h14.277l17.13,27.41c1.028,1.712,2.742,2.627,4.569,2.627c3.313,0,5.595-2.742,5.595-5.482
		c0-0.915-0.227-1.827-0.799-2.855L1568.475,144.826z M1630.053,131.464v-22.27h35.406c2.74,0,4.911-2.285,4.911-4.911
		c0-2.969-2.171-5.14-4.911-5.14h-39.289c-4.11,0-7.423,3.313-7.423,7.425v61.331c0,4.11,3.313,7.423,7.423,7.423h39.289
		c2.74,0,4.911-2.169,4.911-5.14c0-2.627-2.171-4.911-4.911-4.911h-35.406v-23.754h34.607c2.74,0,4.911-2.285,4.911-4.911
		c0-2.971-2.171-5.14-4.911-5.14H1630.053z M1778.09,106.794c0-5.025-4.683-8.335-9.823-8.109c-3.655,0-7.081,2.171-8.451,5.597
		l-20.216,49.11l-20.101-49.11c-1.599-3.997-5.711-5.824-9.936-5.597c-4.567,0-8.222,3.77-8.222,8.109v63.616
		c0,3.084,2.511,5.597,5.595,5.597c3.197,0,5.711-2.513,5.711-5.597v-55.278l24.098,59.048c0.457,1.028,1.601,1.827,2.742,1.827
		c1.485,0,2.513-0.799,2.969-1.827l24.213-59.048v55.278c0,3.084,2.513,5.597,5.711,5.597s5.711-2.513,5.711-5.597V106.794z
		 M1823.573,103.94c0-2.971-2.513-5.482-5.482-5.482c-3.313,0-5.824,2.511-5.824,5.482v66.469c0,3.084,2.511,5.597,5.595,5.597
		c3.197,0,5.711-2.513,5.711-5.597V103.94z M1921.573,103.94c0-2.971-2.398-5.482-5.482-5.482c-3.426,0-5.824,2.511-5.824,5.482
		v41.23c0,13.133-7.196,21.471-20.558,21.471c-13.475,0-20.672-8.337-20.672-21.471v-41.23c0-2.971-2.513-5.482-5.482-5.482
		c-3.313,0-5.824,2.511-5.824,5.482v41.572c0,18.731,10.622,31.178,31.978,31.178c21.244,0,31.865-12.334,31.865-31.294V103.94z
		 M2029.183,106.794c0-5.025-4.683-8.335-9.823-8.109c-3.655,0-7.081,2.171-8.451,5.597l-20.216,49.11l-20.101-49.11
		c-1.599-3.997-5.711-5.824-9.936-5.597c-4.567,0-8.222,3.77-8.222,8.109v63.616c0,3.084,2.511,5.597,5.595,5.597
		c3.197,0,5.711-2.513,5.711-5.597v-55.278l24.098,59.048c0.457,1.028,1.601,1.827,2.742,1.827c1.485,0,2.513-0.799,2.969-1.827
		l24.213-59.048v55.278c0,3.084,2.513,5.597,5.711,5.597s5.711-2.513,5.711-5.597V106.794z"/>
	<g id="XMLID_61_">
		<g id="XMLID_62_">
			<path id="XMLID_77_" d="M900.04,83.842c29.588,0,53.659,24.071,53.659,53.658s-24.071,53.658-53.659,53.658
				c-29.587,0-53.658-24.071-53.658-53.658S870.452,83.842,900.04,83.842 M900.04,48.069c-49.391,0-89.431,40.04-89.431,89.431
				s40.04,89.431,89.431,89.431c49.392,0,89.431-40.04,89.431-89.431S949.431,48.069,900.04,48.069L900.04,48.069z"/>
			<path id="XMLID_74_" d="M345.562,53.625v14.546c-15.4-12.561-35.057-20.102-56.48-20.102c-49.391,0-89.431,40.04-89.431,89.431
				c0,49.392,40.04,89.431,89.431,89.431c21.423,0,41.079-7.541,56.48-20.102v14.546h32.952V53.625H345.562z M291.07,193.146
				c-30.683,0-55.646-24.963-55.646-55.646s24.963-55.646,55.646-55.646s55.646,24.963,55.646,55.646
				S321.753,193.146,291.07,193.146z"/>
			<path id="XMLID_71_" d="M1256.06,53.625v14.546c-15.4-12.561-35.057-20.102-56.479-20.102c-49.392,0-89.431,40.04-89.431,89.431
				c0,49.392,40.04,89.431,89.431,89.431c21.423,0,41.079-7.541,56.479-20.102v14.546h32.952V53.625H1256.06z M1201.568,193.146
				c-30.683,0-55.646-24.963-55.646-55.646s24.963-55.646,55.646-55.646c30.683,0,55.646,24.963,55.646,55.646
				S1232.251,193.146,1201.568,193.146z"/>
			<path id="XMLID_70_" d="M1048.039,64.265c-19.174,12.274-35.773,33.977-35.773,72.473v84.638h35.773v-84.638h0.001
				c0-55.646,57.352-52.607,57.352-52.607V48.421v-0.054C1105.391,48.367,1074.295,47.457,1048.039,64.265z"/>
			<path id="XMLID_69_" d="M548.277,65.954c-14.947-11.228-33.525-17.885-53.659-17.885c-20.134,0-38.711,6.657-53.659,17.885
				c-21.72,16.316-35.773,42.289-35.773,71.546v83.875h35.773v-12.329V137.5c0-29.588,24.071-53.659,53.659-53.659
				c29.588,0,53.659,24.071,53.659,53.659v71.546v12.329h35.773V137.5C584.05,108.243,569.997,82.27,548.277,65.954z"/>
			<path id="XMLID_66_" d="M770.284,0c-9.099,0-16.476,7.377-16.476,16.476v51.695c-15.4-12.561-35.057-20.102-56.479-20.102
				c-49.392,0-89.432,40.04-89.432,89.431c0,49.392,40.039,89.431,89.432,89.431c21.423,0,41.079-7.541,56.479-20.102v14.546h32.951
				V16.476V0H770.284z M699.316,193.146c-30.683,0-55.645-24.963-55.645-55.646c0-30.684,24.962-55.646,55.645-55.646
				s55.646,24.963,55.646,55.646C754.963,168.183,730,193.146,699.316,193.146z"/>
			<path id="XMLID_63_" d="M89.432,48.069c-21.423,0-41.08,7.541-56.48,20.102V53.625H0v204.899V275h16.476
				c9.1,0,16.476-7.376,16.476-16.476v-51.695c15.4,12.561,35.057,20.102,56.48,20.102c49.391,0,89.432-40.04,89.432-89.431
				C178.863,88.108,138.823,48.069,89.432,48.069z M87.444,193.146c-30.683,0-55.646-24.963-55.646-55.646
				c0-30.684,24.963-55.646,55.646-55.646s55.646,24.963,55.646,55.646C143.09,168.183,118.127,193.146,87.444,193.146z"/>
		</g>
	</g>
</g>
<g>
	<path d="M2109.952,25.334v28.291h-4.083V25.334h-9.042v-3.792h22.167v3.792H2109.952z M2109.952,25.334v28.291h-4.083V25.334
		h-9.042v-3.792h22.167v3.792H2109.952z M2151.37,53.625V27.083l-10.938,26.542h-1.166l-10.938-26.542v26.542h-4.083V21.542h6.271
		l9.333,23.334l9.333-23.334h6.271v32.083H2151.37z"/>
</g>
</svg>
