<?xml version="1.0" encoding="UTF-8"?>
<svg width="64px" height="64px" viewBox="0 0 64 64" version="1.1" xmlns="http://www.w3.org/2000/svg" xmlns:xlink="http://www.w3.org/1999/xlink">
    <title>Assets / Icons / Content / SXM App</title>
    <g id="Assets-/-Icons-/-Content-/-SXM-App" stroke="none" stroke-width="1" fill="none" fill-rule="evenodd">
        <path d="M48,7.0194 C52.9702847,7.0194 57,11.0491153 57,16.0194 L57,16.0194 L57,48.0194 C57,52.9896847 52.9702847,57.0194 48,57.0194 L48,57.0194 L16,57.0194 C11.0297153,57.0194 7,52.9896847 7,48.0194 L7,48.0194 L7,16.0194 C7,11.0491153 11.0297153,7.0194 16,7.0194 L16,7.0194 Z M48,9.0194 L16,9.0194 C12.1342847,9.0194 9,12.1536847 9,16.0194 L9,16.0194 L9,48.0194 C9,51.8851153 12.1342847,55.0194 16,55.0194 L16,55.0194 L48,55.0194 C51.8657153,55.0194 55,51.8851153 55,48.0194 L55,48.0194 L55,16.0194 C55,12.1536847 51.8657153,9.0194 48,9.0194 L48,9.0194 Z M25.0724,44.3022 C27.1164,45.7072 29.5154,46.4502 32.0074,46.4502 C34.3284,46.4502 36.5684,45.8062 38.5164,44.5842 L38.9294,44.3132 L39.0534,44.2442 C39.3934,44.0912 39.8044,44.1992 40.0214,44.5162 C40.2664,44.8742 40.1744,45.3632 39.8184,45.6072 C37.5124,47.1852 34.8124,48.0192 32.0074,48.0192 C29.1964,48.0192 26.4904,47.1812 24.1814,45.5962 C23.8244,45.3512 23.7324,44.8612 23.9804,44.5052 C24.2254,44.1472 24.7144,44.0572 25.0724,44.3022 Z M37.8654,41.7942 C38.1274,42.1402 38.0604,42.6322 37.7144,42.8952 C36.0544,44.1562 34.0724,44.8222 31.9814,44.8222 C29.9094,44.8222 27.9404,44.1672 26.2884,42.9252 C25.9804,42.6932 25.8904,42.2782 26.0574,41.9452 L26.1314,41.8252 L26.2264,41.7192 C26.5004,41.4662 26.9234,41.4382 27.2314,41.6692 C28.6094,42.7062 30.2524,43.2522 31.9814,43.2522 C33.7254,43.2522 35.3794,42.6962 36.7644,41.6432 C37.1104,41.3812 37.6014,41.4492 37.8654,41.7942 Z M29.1594,38.9102 C29.9794,39.5702 30.9724,39.9202 32.0274,39.9202 C33.0614,39.9202 34.0384,39.5842 34.8494,38.9482 C35.1914,38.6792 35.6854,38.7412 35.9524,39.0832 C36.2194,39.4232 36.1614,39.9182 35.8174,40.1862 C34.7264,41.0392 33.4174,41.4902 32.0274,41.4902 C30.6304,41.4902 29.2614,41.0082 28.1744,40.1342 C27.8364,39.8622 27.7824,39.3682 28.0534,39.0302 L28.1524,38.9272 C28.4334,38.6842 28.8574,38.6682 29.1594,38.9102 Z M19.1934,27.1332 C21.1684,27.1332 23.4894,27.5852 23.6974,29.9932 L20.4224,29.9932 C20.3874,29.6982 20.2664,29.4902 20.0764,29.3342 C19.8854,29.1782 19.6264,29.1092 19.3484,29.1092 C18.7254,29.1092 18.3274,29.2992 18.3274,29.7502 C18.3274,31.0142 24.0604,30.1662 24.0604,33.5602 C24.0604,35.4492 22.5024,36.7302 19.1744,36.7302 C17.0964,36.7302 14.8104,36.0892 14.6204,33.6472 L18.0494,33.6472 C18.0494,34.0112 18.1884,34.2892 18.4304,34.4792 C18.6564,34.6522 18.9674,34.7562 19.3144,34.7562 C19.8684,34.7562 20.4584,34.5832 20.4584,33.9422 C20.4584,32.4872 14.8964,33.6472 14.8964,30.1312 C14.8964,27.8102 17.3044,27.1332 19.1934,27.1332 Z M27.9074,27.3942 L29.0504,29.6632 L30.2634,27.3942 L34.2134,27.3942 L31.1124,31.7082 L34.2474,36.4702 L30.2284,36.4702 L28.9464,33.8732 L27.6304,36.4702 L23.6454,36.4702 L26.9024,31.7242 L23.9064,27.3942 L27.9074,27.3942 Z M45.9724,27.1352 C48.2564,27.1352 49.3804,28.6242 49.3804,31.1002 L49.3804,36.4702 L45.7774,36.4702 L45.7774,31.8462 C45.7774,30.5112 45.6904,29.9752 44.7374,29.9782 C43.8174,29.9800182 43.7395488,30.7347289 43.7329973,31.6916185 L43.7324,36.4702 L40.1294,36.4702 L40.1294,31.8462 C40.1294,30.5112 40.0504,30.0012 39.0904,29.9762 C38.1463545,29.9523364 38.0806645,30.8095616 38.0766431,31.8364276 L38.0764,36.4702 L34.4724,36.4702 L34.4724,27.3942 L37.7824,27.3942 L37.7824,28.7452 C38.2324,28.0522 39.0514,27.1352 40.3514,27.1352 C41.8534,27.1352 42.7624,27.8272 43.1954,28.7962 C43.9754,27.7062 44.6584,27.1362 45.9724,27.1352 Z M32.0274,22.5522 L32.4044,22.5632 C33.6534,22.6372 34.8264,23.0812 35.8174,23.8572 C36.1614,24.1252 36.2194,24.6182 35.9524,24.9612 C35.6854,25.3002 35.1914,25.3622 34.8494,25.0952 C34.0384,24.4592 33.0614,24.1242 32.0274,24.1242 C30.9724,24.1242 29.9794,24.4722 29.1594,25.1312 C28.8194,25.4052 28.3264,25.3502 28.0534,25.0132 C27.7824,24.6752 27.8364,24.1802 28.1744,23.9082 C29.2614,23.0342 30.6304,22.5522 32.0274,22.5522 Z M31.9814,19.2202 C34.0724,19.2202 36.0544,19.8872 37.7144,21.1482 C38.0604,21.4112 38.1274,21.9032 37.8654,22.2492 C37.6014,22.5942 37.1104,22.6602 36.7644,22.3982 C35.3794,21.3462 33.7254,20.7912 31.9814,20.7912 C30.2524,20.7912 28.6094,21.3382 27.2314,22.3732 C26.8854,22.6342 26.3924,22.5632 26.1314,22.2172 C25.8724,21.8702 25.9424,21.3782 26.2884,21.1182 C27.9404,19.8762 29.9094,19.2202 31.9814,19.2202 Z M32.0074,16.0192 C34.8124,16.0192 37.5124,16.8542 39.8184,18.4332 C40.1744,18.6782 40.2664,19.1692 40.0214,19.5252 C39.7774,19.8832 39.2884,19.9752 38.9294,19.7302 C36.8874,18.3312 34.4944,17.5922 32.0074,17.5922 C29.6814,17.5922 27.4364,18.2382 25.4854,19.4672 L25.0724,19.7402 L25.0654,19.7442 L25.0624,19.7472 L24.9484,19.8092 C24.6084,19.9622 24.1984,19.8552 23.9804,19.5382 C23.7324,19.1802 23.8244,18.6902 24.1814,18.4452 C26.4904,16.8582 29.1964,16.0192 32.0074,16.0192 Z" id="Combined-Shape" fill="#080909" fill-rule="nonzero"></path>
    </g>
</svg>