<?xml version="1.0" encoding="UTF-8"?>
<svg width="64px" height="64px" viewBox="0 0 64 64" version="1.1" xmlns="http://www.w3.org/2000/svg" xmlns:xlink="http://www.w3.org/1999/xlink">
    <title>Assets / Icons / Content / Talk Microphone</title>
    <g id="Assets-/-Icons-/-Content-/-Talk-Microphone" stroke="none" stroke-width="1" fill="none" fill-rule="evenodd">
        <path d="M33.3563,4 C35.9379361,4 38.0958987,5.96202448 38.3400594,8.52475638 L38.3400594,8.52475638 L39.931,24 L42.781,24 L43.0056086,21.894237 L44.9943914,22.105763 L43.4545502,36.5809924 C43.1590907,40.1287876 40.2534207,42.8755604 36.7208082,42.9958872 L36.479,43 L27.521,43 C23.9609144,43 20.9826972,40.3320671 20.5716343,36.8429109 L19.0056086,22.105763 L20.9943914,21.894237 L21.218,24 L24.069,24 L25.6597633,8.53262486 C25.8962516,6.03797619 27.936111,4.11596 30.4166229,4.00505822 L30.6433,4 Z M24.097,26 L21.431,26 L22.5385502,36.4150076 C22.7482304,38.9327896 24.7980872,40.8856165 27.2991797,40.9951513 L27.521,41 L36.479,41 C39.0054343,41 41.121484,39.1191097 41.4401874,36.6147921 L42.568,26 L39.889,26 L39.2470488,33.0500084 C39.0964269,36.0581736 37.6509276,37.8900569 35.4604695,37.9952125 L35.2593,38 L28.7403,38 C26.6711334,38 24.943079,36.4215973 24.7553911,34.3495659 L24.7553911,34.3495659 L24.097,26 Z M37.879,26 L26.102,26 L26.7482196,34.1807549 C26.8319525,35.1048079 27.5362299,35.8352055 28.4273575,35.9755817 L28.5864667,35.9941485 L28.7403,36 L35.2593,36 C36.3777946,36 37.1431993,35.0740121 37.2524078,32.9094534 L37.2524078,32.9094534 L37.879,26 Z M32.0855407,5.9994657 L30.6433,6 C30.0387601,6 29.472988,6.17907667 28.9989295,6.48951623 C28.9999875,6.49288355 29,6.49643103 29,6.5 C29,7.21626298 28.4978808,7.81578884 27.8257232,7.96455474 C27.7351255,8.20455814 27.6754618,8.46133752 27.6500594,8.72924362 L27.6500594,8.72924362 L27.1023604,14.053249 C27.2289814,14.0185377 27.3623114,14 27.5,14 C28.329,14 29,14.672 29,15.5 C29,16.328 28.329,17 27.5,17 C27.2537177,17 27.0213804,16.9406902 26.8164388,16.8356002 L26.2079585,22.7375166 C26.4689443,22.2961621 26.9496555,22 27.5,22 C28.329,22 29,22.672 29,23.5 C29,23.6758617 28.9697306,23.8446861 28.9141069,24.0015292 L32.0858931,24.0015292 C32.0302694,23.8446861 32,23.6758617 32,23.5 C32,22.672 32.671,22 33.5,22 C34.329,22 35,22.672 35,23.5 C35,23.6758617 34.9697306,23.8446861 34.9141069,24.0015292 L37.918,24 L37.5658518,20.5554975 C37.2940941,20.8299349 36.9170398,21 36.5,21 C35.671,21 35,20.328 35,19.5 C35,18.672 35.671,18 36.5,18 C36.8066465,18 37.0916746,18.0919467 37.3291205,18.2497246 L36.7862105,12.9727409 C36.693573,12.9906304 36.597888,13 36.5,13 C35.671,13 35,12.328 35,11.5 C35,10.6787181 35.6601557,10.0109149 36.479853,10.0001324 L36.3498089,8.72185477 C36.2600314,7.77964893 35.7422851,6.9736033 34.9998651,6.48852005 L35,6.5 L35,6.5 C35,7.328 34.329,8 33.5,8 C32.671,8 32,7.328 32,6.5 C32,6.3245101 32.0301416,6.15602779 32.0855407,5.9994657 Z M30.5,18 C31.329,18 32,18.672 32,19.5 C32,20.328 31.329,21 30.5,21 C29.671,21 29,20.328 29,19.5 C29,18.672 29.671,18 30.5,18 Z M33.5,14 C34.329,14 35,14.672 35,15.5 C35,16.328 34.329,17 33.5,17 C32.671,17 32,16.328 32,15.5 C32,14.672 32.671,14 33.5,14 Z M30.5,10 C31.329,10 32,10.672 32,11.5 C32,12.328 31.329,13 30.5,13 C29.671,13 29,12.328 29,11.5 C29,10.672 29.671,10 30.5,10 Z M33,45 L33,53 L40.36,53 C41.7306791,53 42.9189285,53.9266957 43.2626276,55.2378894 L43.302614,55.4110506 L43.819,58 L46,58 L46,60 L18,60 L18,58 L20.18,58 L20.6974597,55.410682 C20.9663974,54.0674319 22.1087409,53.0847674 23.4623048,53.0052108 L23.64,53 L31,53 L31,45 L33,45 Z M40.36,55 L23.64,55 C23.2025182,55 22.8209218,55.282759 22.6884276,55.6891652 L22.658614,55.8029494 L22.219,58 L41.78,58 L41.3414597,55.803318 C41.255786,55.3754075 40.903507,55.0569893 40.4777825,55.0068912 L40.36,55 Z" id="Combined-Shape" fill="#020303" fill-rule="nonzero"></path>
    </g>
</svg>