<?xml version="1.0" encoding="UTF-8"?>
<svg width="64px" height="64px" viewBox="0 0 64 64" version="1.1" xmlns="http://www.w3.org/2000/svg" xmlns:xlink="http://www.w3.org/1999/xlink">
    <title>Assets / Icons / Content / Video Collections</title>
    <g id="Assets-/-Icons-/-Content-/-Video-Collections" stroke="none" stroke-width="1" fill="none" fill-rule="evenodd">
        <path d="M46.9966,13.9999 C48.6551165,13.9999 49.9996,15.3448471 49.9996,17.0039 L49.9996,17.0039 L49.9996,44.9999 C49.9996,46.6589529 48.6551165,48.0039 46.9966,48.0039 L46.9966,48.0039 L7.0036,48.0039 C5.34431525,48.0039 3.9996,46.6591847 3.9996,44.9999 L3.9996,44.9999 L3.9996,17.0039 C3.9996,15.3446153 5.34431525,13.9999 7.0036,13.9999 L7.0036,13.9999 Z M46.9966,15.9999 L7.0036,15.9999 C6.44888475,15.9999 5.9996,16.4491847 5.9996,17.0039 L5.9996,17.0039 L5.9996,44.9999 C5.9996,45.5546153 6.44888475,46.0039 7.0036,46.0039 L7.0036,46.0039 L46.9966,46.0039 C47.5503927,46.0039 47.9996,45.5545378 47.9996,44.9999 L47.9996,44.9999 L47.9996,17.0039 C47.9996,16.4492622 47.5503927,15.9999 46.9966,15.9999 L46.9966,15.9999 Z M19.5739,23.9961 C19.5739,22.8716167 20.7707975,22.1606617 21.7670645,22.6722663 L21.7670645,22.6722663 L36.1940173,30.1497608 C37.2396832,30.6931546 37.2396832,32.0735547 36.3670835,32.7892826 L36.3670835,32.7892826 L36.1930645,32.9039337 L21.6394994,40.4470507 L21.4984796,40.4745771 C20.5631492,40.6571491 19.5739,39.9743663 19.5739,38.9491 L19.5739,38.9491 Z M21.573,24.824 L21.573,38.228 L34.504,31.526 L21.573,24.824 Z M55,18 L55,48.004 L53,48.004 L53,18 L55,18 Z M60,22 L60,48.004 L58,48.004 L58,22 L60,22 Z" id="Combined-Shape" fill="#231F20" fill-rule="nonzero"></path>
    </g>
</svg>